<svg xmlns="http://www.w3.org/2000/svg" viewBox="0 0 64 64"><g id="Layer_15" data-name="Layer 15"><path d="M20.32,46.06a.86.86,0,0,0,.61-.23.83.83,0,0,0,.26-.66.8.8,0,0,0-.26-.61.88.88,0,0,0-1.25,0,.84.84,0,0,0-.25.61.85.85,0,0,0,.26.66A.91.91,0,0,0,20.32,46.06Z" id="id_106" style="fill: rgb(255, 255, 255);"></path><path d="M23.52,45.77a1.38,1.38,0,0,0,.72.15h2.27a6.73,6.73,0,0,0,1.06-.08,3.59,3.59,0,0,0,.88-.26,2.94,2.94,0,0,0,.76-.5,3.58,3.58,0,0,0,.72-.92A4,4,0,0,0,30.34,43a6.73,6.73,0,0,0,.14-1.41,4.35,4.35,0,0,0-1.34-3.49A2.88,2.88,0,0,0,28,37.49a6.11,6.11,0,0,0-1.52-.16H24.2a.91.91,0,0,0-1.06,1.07v6.29a2.53,2.53,0,0,0,.07.68A.65.65,0,0,0,23.52,45.77Zm1.36-7.06H26a4.55,4.55,0,0,1,1.36.17,1.67,1.67,0,0,1,.94.8,3.73,3.73,0,0,1,.39,1.91,3.18,3.18,0,0,1-.88,2.54,1.68,1.68,0,0,1-.45.27,2,2,0,0,1-.51.11,6,6,0,0,1-.68,0H24.88Z" id="id_107" style="fill: rgb(20, 139, 163);"></path><path d="M33,45.92h4.2a1,1,0,0,0,.65-.2.64.64,0,0,0,.22-.51.67.67,0,0,0-.22-.52,1,1,0,0,0-.65-.2H33.71V38.24a1.16,1.16,0,0,0-.24-.8.84.84,0,0,0-.64-.26.8.8,0,0,0-.62.27,1.13,1.13,0,0,0-.24.79v6.61A.91.91,0,0,0,33,45.92Z" id="id_108" style="fill: rgb(20, 137, 161);"></path><path d="M40.29,45.92h4.2a1,1,0,0,0,.65-.2.64.64,0,0,0,.22-.51.67.67,0,0,0-.22-.52,1,1,0,0,0-.65-.2H41V38.24a1.16,1.16,0,0,0-.24-.8.85.85,0,0,0-.64-.26.8.8,0,0,0-.62.27,1.13,1.13,0,0,0-.24.79v6.61a1.12,1.12,0,0,0,.25.82A1.16,1.16,0,0,0,40.29,45.92Z" id="id_109" style="fill: rgb(20, 139, 163);"></path><path d="M56,34H53V16s0,0,0-.06a1.55,1.55,0,0,0,0-.21s0-.05,0-.08a.08.08,0,0,0,0,0,1,1,0,0,0-.17-.29l-11-12a1.42,1.42,0,0,0-.29-.21s0,0,0,0l-.07,0a.86.86,0,0,0-.23,0L41,3H14.42A3.42,3.42,0,0,0,11,6.42V34H8a1,1,0,0,0-1,1V49s0,0,0,.07,0,.13,0,.2l.06.17a.91.91,0,0,0,.11.16l.13.15.05,0L11,52.5v5.08A3.42,3.42,0,0,0,14.42,61H49.58A3.42,3.42,0,0,0,53,57.58V52.5l3.6-2.7,0,0,.13-.15a.91.91,0,0,0,.11-.16l.06-.17c0-.07,0-.13,0-.2s0,0,0-.07V35A1,1,0,0,0,56,34ZM42,6.57,49.73,15H42ZM21,5H40V16a1,1,0,0,0,1,1H51V34H21ZM13,6.42A1.43,1.43,0,0,1,14.42,5H19V34H13ZM11,50Zm8,9H14.42A1.43,1.43,0,0,1,13,57.58V50h6Zm32-1.42A1.43,1.43,0,0,1,49.58,59H21V50H51ZM53,50Zm2-2H9V36H55Z" id="id_110" style="fill: rgb(20, 143, 168);"></path></g></svg>