<?xml version="1.0" encoding="utf-8"?>
<!-- Generator: Adobe Illustrator 24.2.2, SVG Export Plug-In . SVG Version: 6.00 Build 0)  -->
<svg version="1.1" id="Layer_1" xmlns="http://www.w3.org/2000/svg" xmlns:xlink="http://www.w3.org/1999/xlink" x="0px" y="0px"
	 viewBox="0 0 512 512" style="enable-background:new 0 0 512 512;" xml:space="preserve">
<style type="text/css">
	.st0{fill:#F4F4F3;}
	.st1{fill:#EDECEB;}
	.st2{fill:#219C60;}
</style>
<g>
	<g>
		<path class="st0" d="M414.2,121.5v317.6c0,7.4-6,13.4-13.4,13.4H111.2c-7.4,0-13.4-6-13.4-13.4V72.9c0-7.4,6-13.4,13.4-13.4h237.6
			L414.2,121.5z"/>
		<path class="st1" d="M414.2,121.5h-52.1c-7.4,0-13.4-6-13.4-13.4V59.5L414.2,121.5z"/>
	</g>
	<rect x="97.8" y="307.9" class="st2" width="316.5" height="103.3"/>
	<g>
		<path class="st0" d="M182.5,378.7l36.8-44h-31.6c-2.2,0-3.9-0.5-5-1.5s-1.7-2.3-1.7-3.9c0-1.7,0.6-3,1.7-4s2.8-1.5,5-1.5h40.7
			c5.3,0,7.9,2.5,7.9,7.4c0,2.3-0.4,4.2-1.3,5.6c-0.9,1.4-2.7,3.7-5.3,6.8l-34.4,40.9h37.9c2.2,0,3.9,0.5,5,1.4
			c1.1,0.9,1.7,2.2,1.7,3.9c0,1.7-0.6,3.1-1.7,4.1c-1.1,1-2.8,1.5-5,1.5h-46.5c-3.2,0-5.5-0.7-7.1-2.1c-1.6-1.4-2.4-3.3-2.4-5.7
			c0-0.8,0.1-1.6,0.4-2.2c0.3-0.7,0.6-1.3,1-1.9c0.4-0.6,1-1.4,1.8-2.3S181.9,379.3,182.5,378.7z"/>
		<path class="st0" d="M249.6,387.7v-56.4c0-2.9,0.7-5.1,2-6.6c1.3-1.5,3.1-2.2,5.2-2.2c2.2,0,3.9,0.7,5.3,2.2c1.4,1.4,2,3.7,2,6.6
			v56.4c0,3-0.7,5.2-2,6.6c-1.4,1.5-3.1,2.2-5.3,2.2c-2.1,0-3.8-0.7-5.2-2.2C250.2,392.9,249.6,390.7,249.6,387.7z"/>
		<path class="st0" d="M308.1,367.5h-13.3v20.3c0,2.9-0.7,5.1-2.1,6.6s-3.1,2.2-5.2,2.2c-2.2,0-3.9-0.7-5.3-2.2
			c-1.3-1.5-2-3.7-2-6.5v-55.2c0-3.2,0.7-5.5,2.2-6.8s3.8-2.1,7-2.1h18.6c5.5,0,9.7,0.4,12.7,1.3c2.9,0.8,5.5,2.2,7.6,4.1
			c2.1,1.9,3.8,4.2,4.9,6.9c1.1,2.7,1.7,5.8,1.7,9.2c0,7.3-2.2,12.8-6.7,16.6S316.9,367.5,308.1,367.5z M304.5,334.7h-9.8v21.9h9.8
			c3.4,0,6.3-0.4,8.6-1.1c2.3-0.7,4-1.9,5.2-3.5c1.2-1.6,1.8-3.8,1.8-6.4c0-3.2-0.9-5.7-2.8-7.7C315.3,335.7,311,334.7,304.5,334.7z
			"/>
	</g>
</g>
</svg>
